# xmcd
#
# Track frame offsets:
#	182
#	16487
#	39622
#	57742
#	69877
#	91570
#	112837
#	131832
#	141007
#	164077
#	179120
#	201427
#	214970
#	230115
#	246035
#	266645
#	279842
#	292590
#	320757
#
# Disc length: 4522 seconds
#
# Revision: 1
# Processed by: cddbd v1.4PL0 Copyright (c) Steve Scherf et al.
# Submitted via: audiograbber 1.82.02
#
DISCID=2511a813
DTITLE=The Nelons - A Promised Reunion
DYEAR=1994
DGENRE=Christian
TTITLE0=The Suns Coming Up (Live)
TTITLE1=Thank You Lord, For Your Blessings (Live)
TTITLE2=Come Morning (Live)
TTITLE3=I Love To Call His Name (Live)
TTITLE4=We Shall Wear A Robe And Crown (Live)
TTITLE5=Way Up In Gloryland (Live)
TTITLE6=Bring My Children Home (Live)
TTITLE7=Walk Right Out Of This Valley (Live)
TTITLE8=There Ain't No Grave Gonna Hold My Body Down (Live)
TTITLE9=Thanks (Live)
TTITLE10=O For A Thousand Tongues (Live)
TTITLE11=I've Got A Right (Live)
TTITLE12=Just Like God (Live)
TTITLE13=I'm Glad I Know Who Jesus Is (Live)
TTITLE14=There's My King (Live)
TTITLE15=What A Change (Live)
TTITLE16=It's A Wonderful Feeling (Live)
TTITLE17=Promised Reunion (Live)
TTITLE18=We've Got To Get America Back To God (Live)
EXTD=
EXTT0=
EXTT1=
EXTT2=
EXTT3=
EXTT4=
EXTT5=
EXTT6=
EXTT7=
EXTT8=
EXTT9=
EXTT10=
EXTT11=
EXTT12=
EXTT13=
EXTT14=
EXTT15=
EXTT16=
EXTT17=
EXTT18=
PLAYORDER=
